<mxfile host="app.diagrams.net" agent="Mozilla/5.0 (Windows NT 10.0; Win64; x64) AppleWebKit/537.36 (KHTML, like Gecko) Chrome/128.0.0.0 Safari/537.36" version="24.7.12">
  <diagram name="Page-1" id="MCOt7YUebBQAvZQtDe7u">
    <mxGraphModel dx="298" dy="156" grid="1" gridSize="10" guides="1" tooltips="1" connect="1" arrows="1" fold="1" page="1" pageScale="1" pageWidth="850" pageHeight="1400" math="0" shadow="0">
      <root>
        <mxCell id="0" />
        <mxCell id="1" parent="0" />
        <mxCell id="6_kXN_2a8IdiCBrukuXB-4" style="edgeStyle=orthogonalEdgeStyle;rounded=0;orthogonalLoop=1;jettySize=auto;html=1;exitX=1;exitY=0.5;exitDx=0;exitDy=0;entryX=0;entryY=0.5;entryDx=0;entryDy=0;" parent="1" source="6_kXN_2a8IdiCBrukuXB-1" target="6_kXN_2a8IdiCBrukuXB-3" edge="1">
          <mxGeometry relative="1" as="geometry" />
        </mxCell>
        <mxCell id="x2t9jPQQrwYsNlc4PM24-5" style="edgeStyle=orthogonalEdgeStyle;rounded=0;orthogonalLoop=1;jettySize=auto;html=1;exitX=1;exitY=0.5;exitDx=0;exitDy=0;entryX=0;entryY=0.5;entryDx=0;entryDy=0;" parent="1" source="6_kXN_2a8IdiCBrukuXB-1" target="x2t9jPQQrwYsNlc4PM24-2" edge="1">
          <mxGeometry relative="1" as="geometry" />
        </mxCell>
        <mxCell id="x2t9jPQQrwYsNlc4PM24-6" style="edgeStyle=orthogonalEdgeStyle;rounded=0;orthogonalLoop=1;jettySize=auto;html=1;exitX=1;exitY=0.5;exitDx=0;exitDy=0;entryX=0;entryY=0.5;entryDx=0;entryDy=0;" parent="1" source="6_kXN_2a8IdiCBrukuXB-1" target="x2t9jPQQrwYsNlc4PM24-3" edge="1">
          <mxGeometry relative="1" as="geometry" />
        </mxCell>
        <mxCell id="x2t9jPQQrwYsNlc4PM24-7" style="edgeStyle=orthogonalEdgeStyle;rounded=0;orthogonalLoop=1;jettySize=auto;html=1;exitX=1;exitY=0.5;exitDx=0;exitDy=0;entryX=0;entryY=0.5;entryDx=0;entryDy=0;" parent="1" source="6_kXN_2a8IdiCBrukuXB-1" target="x2t9jPQQrwYsNlc4PM24-4" edge="1">
          <mxGeometry relative="1" as="geometry" />
        </mxCell>
        <mxCell id="6_kXN_2a8IdiCBrukuXB-1" value="Administrator" style="rounded=0;whiteSpace=wrap;html=1;" parent="1" vertex="1">
          <mxGeometry x="30" y="70" width="120" height="60" as="geometry" />
        </mxCell>
        <mxCell id="x2t9jPQQrwYsNlc4PM24-22" style="edgeStyle=orthogonalEdgeStyle;rounded=0;orthogonalLoop=1;jettySize=auto;html=1;exitX=1;exitY=0.5;exitDx=0;exitDy=0;entryX=0.5;entryY=0;entryDx=0;entryDy=0;fillColor=#d5e8d4;strokeColor=#82b366;" parent="1" source="6_kXN_2a8IdiCBrukuXB-2" target="x2t9jPQQrwYsNlc4PM24-17" edge="1">
          <mxGeometry relative="1" as="geometry">
            <Array as="points">
              <mxPoint x="770" y="100" />
              <mxPoint x="770" y="560" />
              <mxPoint x="690" y="560" />
            </Array>
          </mxGeometry>
        </mxCell>
        <mxCell id="x2t9jPQQrwYsNlc4PM24-61" style="edgeStyle=orthogonalEdgeStyle;rounded=0;orthogonalLoop=1;jettySize=auto;html=1;exitX=1;exitY=0.5;exitDx=0;exitDy=0;entryX=0;entryY=0.25;entryDx=0;entryDy=0;fillColor=#d5e8d4;strokeColor=#82b366;" parent="1" source="6_kXN_2a8IdiCBrukuXB-2" target="x2t9jPQQrwYsNlc4PM24-60" edge="1">
          <mxGeometry relative="1" as="geometry">
            <Array as="points">
              <mxPoint x="900" y="100" />
              <mxPoint x="900" y="340" />
              <mxPoint x="1000" y="340" />
              <mxPoint x="1000" y="355" />
            </Array>
          </mxGeometry>
        </mxCell>
        <mxCell id="6_kXN_2a8IdiCBrukuXB-2" value="Data Siswa" style="shape=partialRectangle;whiteSpace=wrap;html=1;left=0;right=0;fillColor=none;" parent="1" vertex="1">
          <mxGeometry x="630" y="70" width="120" height="60" as="geometry" />
        </mxCell>
        <mxCell id="6_kXN_2a8IdiCBrukuXB-5" style="edgeStyle=orthogonalEdgeStyle;rounded=0;orthogonalLoop=1;jettySize=auto;html=1;exitX=1;exitY=0.5;exitDx=0;exitDy=0;entryX=0;entryY=0.5;entryDx=0;entryDy=0;" parent="1" source="6_kXN_2a8IdiCBrukuXB-3" target="6_kXN_2a8IdiCBrukuXB-2" edge="1">
          <mxGeometry relative="1" as="geometry" />
        </mxCell>
        <mxCell id="6_kXN_2a8IdiCBrukuXB-3" value="&lt;div&gt;1.0&lt;/div&gt;menginput data siswa" style="ellipse;whiteSpace=wrap;html=1;aspect=fixed;" parent="1" vertex="1">
          <mxGeometry x="345" y="60" width="80" height="80" as="geometry" />
        </mxCell>
        <mxCell id="x2t9jPQQrwYsNlc4PM24-50" style="edgeStyle=orthogonalEdgeStyle;rounded=0;orthogonalLoop=1;jettySize=auto;html=1;exitX=1;exitY=0.5;exitDx=0;exitDy=0;entryX=0;entryY=0.5;entryDx=0;entryDy=0;" parent="1" source="6_kXN_2a8IdiCBrukuXB-6" target="x2t9jPQQrwYsNlc4PM24-49" edge="1">
          <mxGeometry relative="1" as="geometry" />
        </mxCell>
        <mxCell id="x2t9jPQQrwYsNlc4PM24-63" style="edgeStyle=orthogonalEdgeStyle;rounded=0;orthogonalLoop=1;jettySize=auto;html=1;exitX=1;exitY=0.5;exitDx=0;exitDy=0;entryX=0;entryY=0.5;entryDx=0;entryDy=0;" parent="1" source="6_kXN_2a8IdiCBrukuXB-6" target="x2t9jPQQrwYsNlc4PM24-60" edge="1">
          <mxGeometry relative="1" as="geometry">
            <Array as="points">
              <mxPoint x="840" y="220" />
              <mxPoint x="840" y="370" />
            </Array>
          </mxGeometry>
        </mxCell>
        <mxCell id="6_kXN_2a8IdiCBrukuXB-6" value="Data petugas" style="shape=partialRectangle;whiteSpace=wrap;html=1;left=0;right=0;fillColor=none;" parent="1" vertex="1">
          <mxGeometry x="630" y="190" width="120" height="60" as="geometry" />
        </mxCell>
        <mxCell id="x2t9jPQQrwYsNlc4PM24-27" style="edgeStyle=orthogonalEdgeStyle;rounded=0;orthogonalLoop=1;jettySize=auto;html=1;exitX=1;exitY=0.5;exitDx=0;exitDy=0;entryX=1;entryY=0.5;entryDx=0;entryDy=0;" parent="1" source="2M698e0Dj1PYR2jwlISN-1" target="x2t9jPQQrwYsNlc4PM24-28" edge="1">
          <mxGeometry relative="1" as="geometry">
            <mxPoint x="820" y="720" as="targetPoint" />
            <Array as="points">
              <mxPoint x="790" y="340" />
              <mxPoint x="790" y="730" />
            </Array>
          </mxGeometry>
        </mxCell>
        <mxCell id="x2t9jPQQrwYsNlc4PM24-66" style="edgeStyle=orthogonalEdgeStyle;rounded=0;orthogonalLoop=1;jettySize=auto;html=1;exitX=1;exitY=0.5;exitDx=0;exitDy=0;entryX=0;entryY=0.5;entryDx=0;entryDy=0;" parent="1" source="2M698e0Dj1PYR2jwlISN-1" target="x2t9jPQQrwYsNlc4PM24-60" edge="1">
          <mxGeometry relative="1" as="geometry">
            <mxPoint x="1020" y="370" as="targetPoint" />
            <Array as="points">
              <mxPoint x="810" y="340" />
              <mxPoint x="810" y="420" />
              <mxPoint x="1010" y="420" />
              <mxPoint x="1010" y="370" />
            </Array>
          </mxGeometry>
        </mxCell>
        <mxCell id="2M698e0Dj1PYR2jwlISN-1" value="Data spp" style="shape=partialRectangle;whiteSpace=wrap;html=1;left=0;right=0;fillColor=none;" parent="1" vertex="1">
          <mxGeometry x="630" y="310" width="120" height="60" as="geometry" />
        </mxCell>
        <mxCell id="x2t9jPQQrwYsNlc4PM24-68" style="edgeStyle=orthogonalEdgeStyle;rounded=0;orthogonalLoop=1;jettySize=auto;html=1;exitX=1;exitY=0.5;exitDx=0;exitDy=0;fillColor=#ffe6cc;strokeColor=#d79b00;entryX=0.013;entryY=0.751;entryDx=0;entryDy=0;entryPerimeter=0;" parent="1" source="x2t9jPQQrwYsNlc4PM24-1" target="x2t9jPQQrwYsNlc4PM24-60" edge="1">
          <mxGeometry relative="1" as="geometry">
            <mxPoint x="1020" y="370" as="targetPoint" />
            <Array as="points">
              <mxPoint x="990" y="460" />
              <mxPoint x="990" y="385" />
            </Array>
          </mxGeometry>
        </mxCell>
        <mxCell id="x2t9jPQQrwYsNlc4PM24-1" value="Data Kelas" style="shape=partialRectangle;whiteSpace=wrap;html=1;left=0;right=0;fillColor=none;" parent="1" vertex="1">
          <mxGeometry x="630" y="430" width="120" height="60" as="geometry" />
        </mxCell>
        <mxCell id="x2t9jPQQrwYsNlc4PM24-8" style="edgeStyle=orthogonalEdgeStyle;rounded=0;orthogonalLoop=1;jettySize=auto;html=1;exitX=1;exitY=0.5;exitDx=0;exitDy=0;entryX=0;entryY=0.5;entryDx=0;entryDy=0;" parent="1" source="x2t9jPQQrwYsNlc4PM24-2" target="6_kXN_2a8IdiCBrukuXB-6" edge="1">
          <mxGeometry relative="1" as="geometry" />
        </mxCell>
        <mxCell id="x2t9jPQQrwYsNlc4PM24-2" value="&lt;div&gt;2.0&lt;/div&gt;menginput data Petugas" style="ellipse;whiteSpace=wrap;html=1;aspect=fixed;" parent="1" vertex="1">
          <mxGeometry x="345" y="180" width="80" height="80" as="geometry" />
        </mxCell>
        <mxCell id="x2t9jPQQrwYsNlc4PM24-9" style="edgeStyle=orthogonalEdgeStyle;rounded=0;orthogonalLoop=1;jettySize=auto;html=1;exitX=1;exitY=0.5;exitDx=0;exitDy=0;entryX=0;entryY=0.5;entryDx=0;entryDy=0;" parent="1" source="x2t9jPQQrwYsNlc4PM24-3" target="2M698e0Dj1PYR2jwlISN-1" edge="1">
          <mxGeometry relative="1" as="geometry" />
        </mxCell>
        <mxCell id="x2t9jPQQrwYsNlc4PM24-3" value="&lt;div&gt;3.0&lt;/div&gt;menginput data spp" style="ellipse;whiteSpace=wrap;html=1;aspect=fixed;" parent="1" vertex="1">
          <mxGeometry x="345" y="300" width="80" height="80" as="geometry" />
        </mxCell>
        <mxCell id="x2t9jPQQrwYsNlc4PM24-10" style="edgeStyle=orthogonalEdgeStyle;rounded=0;orthogonalLoop=1;jettySize=auto;html=1;exitX=1;exitY=0.5;exitDx=0;exitDy=0;entryX=0;entryY=0.5;entryDx=0;entryDy=0;" parent="1" source="x2t9jPQQrwYsNlc4PM24-4" target="x2t9jPQQrwYsNlc4PM24-1" edge="1">
          <mxGeometry relative="1" as="geometry" />
        </mxCell>
        <mxCell id="x2t9jPQQrwYsNlc4PM24-4" value="&lt;div&gt;4.0&lt;/div&gt;menginput data kelas" style="ellipse;whiteSpace=wrap;html=1;aspect=fixed;" parent="1" vertex="1">
          <mxGeometry x="345" y="420" width="80" height="80" as="geometry" />
        </mxCell>
        <mxCell id="x2t9jPQQrwYsNlc4PM24-33" style="edgeStyle=orthogonalEdgeStyle;rounded=0;orthogonalLoop=1;jettySize=auto;html=1;exitX=0.5;exitY=1;exitDx=0;exitDy=0;entryX=0;entryY=0.5;entryDx=0;entryDy=0;" parent="1" source="x2t9jPQQrwYsNlc4PM24-11" target="x2t9jPQQrwYsNlc4PM24-31" edge="1">
          <mxGeometry relative="1" as="geometry" />
        </mxCell>
        <mxCell id="x2t9jPQQrwYsNlc4PM24-11" value="Siswa" style="rounded=0;whiteSpace=wrap;html=1;" parent="1" vertex="1">
          <mxGeometry x="30" y="580" width="120" height="60" as="geometry" />
        </mxCell>
        <mxCell id="x2t9jPQQrwYsNlc4PM24-26" style="edgeStyle=orthogonalEdgeStyle;rounded=0;orthogonalLoop=1;jettySize=auto;html=1;exitX=0;exitY=0.5;exitDx=0;exitDy=0;entryX=1;entryY=0.5;entryDx=0;entryDy=0;" parent="1" source="x2t9jPQQrwYsNlc4PM24-12" target="x2t9jPQQrwYsNlc4PM24-11" edge="1">
          <mxGeometry relative="1" as="geometry" />
        </mxCell>
        <mxCell id="x2t9jPQQrwYsNlc4PM24-12" value="&lt;div&gt;5.0&lt;/div&gt;menerima data login siswa" style="ellipse;whiteSpace=wrap;html=1;aspect=fixed;" parent="1" vertex="1">
          <mxGeometry x="345" y="570" width="80" height="80" as="geometry" />
        </mxCell>
        <mxCell id="x2t9jPQQrwYsNlc4PM24-13" value="data siswa" style="text;html=1;align=center;verticalAlign=middle;resizable=0;points=[];autosize=1;strokeColor=none;fillColor=none;" parent="1" vertex="1">
          <mxGeometry x="250" y="70" width="80" height="30" as="geometry" />
        </mxCell>
        <mxCell id="x2t9jPQQrwYsNlc4PM24-14" value="data petugas" style="text;html=1;align=center;verticalAlign=middle;resizable=0;points=[];autosize=1;strokeColor=none;fillColor=none;" parent="1" vertex="1">
          <mxGeometry x="250" y="190" width="90" height="30" as="geometry" />
        </mxCell>
        <mxCell id="x2t9jPQQrwYsNlc4PM24-15" value="data spp" style="text;html=1;align=center;verticalAlign=middle;resizable=0;points=[];autosize=1;strokeColor=none;fillColor=none;" parent="1" vertex="1">
          <mxGeometry x="250" y="310" width="70" height="30" as="geometry" />
        </mxCell>
        <mxCell id="x2t9jPQQrwYsNlc4PM24-16" value="data kelas" style="text;html=1;align=center;verticalAlign=middle;resizable=0;points=[];autosize=1;strokeColor=none;fillColor=none;" parent="1" vertex="1">
          <mxGeometry x="250" y="430" width="80" height="30" as="geometry" />
        </mxCell>
        <mxCell id="x2t9jPQQrwYsNlc4PM24-24" style="edgeStyle=orthogonalEdgeStyle;rounded=0;orthogonalLoop=1;jettySize=auto;html=1;exitX=0;exitY=0.5;exitDx=0;exitDy=0;entryX=1;entryY=0.5;entryDx=0;entryDy=0;" parent="1" source="x2t9jPQQrwYsNlc4PM24-17" target="x2t9jPQQrwYsNlc4PM24-12" edge="1">
          <mxGeometry relative="1" as="geometry" />
        </mxCell>
        <mxCell id="x2t9jPQQrwYsNlc4PM24-17" value="data login siswa" style="shape=partialRectangle;whiteSpace=wrap;html=1;left=0;right=0;fillColor=none;" parent="1" vertex="1">
          <mxGeometry x="630" y="580" width="120" height="60" as="geometry" />
        </mxCell>
        <mxCell id="x2t9jPQQrwYsNlc4PM24-23" value="data siswa" style="text;html=1;align=center;verticalAlign=middle;resizable=0;points=[];autosize=1;strokeColor=none;fillColor=none;" parent="1" vertex="1">
          <mxGeometry x="690" y="530" width="80" height="30" as="geometry" />
        </mxCell>
        <mxCell id="x2t9jPQQrwYsNlc4PM24-25" value="data login siswa" style="text;html=1;align=center;verticalAlign=middle;resizable=0;points=[];autosize=1;strokeColor=none;fillColor=none;" parent="1" vertex="1">
          <mxGeometry x="460" y="580" width="110" height="30" as="geometry" />
        </mxCell>
        <mxCell id="x2t9jPQQrwYsNlc4PM24-30" style="edgeStyle=orthogonalEdgeStyle;rounded=0;orthogonalLoop=1;jettySize=auto;html=1;exitX=0;exitY=0.5;exitDx=0;exitDy=0;entryX=1;entryY=0.5;entryDx=0;entryDy=0;" parent="1" source="x2t9jPQQrwYsNlc4PM24-28" target="x2t9jPQQrwYsNlc4PM24-11" edge="1">
          <mxGeometry relative="1" as="geometry">
            <Array as="points">
              <mxPoint x="190" y="730" />
              <mxPoint x="190" y="610" />
            </Array>
          </mxGeometry>
        </mxCell>
        <mxCell id="x2t9jPQQrwYsNlc4PM24-28" value="&lt;div&gt;6.0&lt;/div&gt;menerima data spp" style="ellipse;whiteSpace=wrap;html=1;aspect=fixed;" parent="1" vertex="1">
          <mxGeometry x="345" y="690" width="80" height="80" as="geometry" />
        </mxCell>
        <mxCell id="x2t9jPQQrwYsNlc4PM24-29" value="data spp" style="text;html=1;align=center;verticalAlign=middle;resizable=0;points=[];autosize=1;strokeColor=none;fillColor=none;" parent="1" vertex="1">
          <mxGeometry x="500" y="700" width="70" height="30" as="geometry" />
        </mxCell>
        <mxCell id="x2t9jPQQrwYsNlc4PM24-34" style="edgeStyle=orthogonalEdgeStyle;rounded=0;orthogonalLoop=1;jettySize=auto;html=1;exitX=1;exitY=0.5;exitDx=0;exitDy=0;entryX=0;entryY=0.5;entryDx=0;entryDy=0;" parent="1" source="x2t9jPQQrwYsNlc4PM24-31" target="x2t9jPQQrwYsNlc4PM24-32" edge="1">
          <mxGeometry relative="1" as="geometry" />
        </mxCell>
        <mxCell id="x2t9jPQQrwYsNlc4PM24-31" value="&lt;div&gt;7.0&lt;/div&gt;menginput data pembayaran spp" style="ellipse;whiteSpace=wrap;html=1;aspect=fixed;" parent="1" vertex="1">
          <mxGeometry x="345" y="820" width="80" height="80" as="geometry" />
        </mxCell>
        <mxCell id="x2t9jPQQrwYsNlc4PM24-38" style="edgeStyle=orthogonalEdgeStyle;rounded=0;orthogonalLoop=1;jettySize=auto;html=1;exitX=1;exitY=0.5;exitDx=0;exitDy=0;entryX=0.5;entryY=0;entryDx=0;entryDy=0;" parent="1" source="x2t9jPQQrwYsNlc4PM24-32" target="x2t9jPQQrwYsNlc4PM24-36" edge="1">
          <mxGeometry relative="1" as="geometry" />
        </mxCell>
        <mxCell id="x2t9jPQQrwYsNlc4PM24-32" value="data pembayaran spp" style="shape=partialRectangle;whiteSpace=wrap;html=1;left=0;right=0;fillColor=none;" parent="1" vertex="1">
          <mxGeometry x="670" y="830" width="120" height="60" as="geometry" />
        </mxCell>
        <mxCell id="x2t9jPQQrwYsNlc4PM24-35" value="data pembayaran spp" style="text;html=1;align=center;verticalAlign=middle;resizable=0;points=[];autosize=1;strokeColor=none;fillColor=none;" parent="1" vertex="1">
          <mxGeometry x="140" y="830" width="140" height="30" as="geometry" />
        </mxCell>
        <mxCell id="x2t9jPQQrwYsNlc4PM24-41" style="edgeStyle=orthogonalEdgeStyle;rounded=0;orthogonalLoop=1;jettySize=auto;html=1;exitX=0;exitY=0.5;exitDx=0;exitDy=0;entryX=1;entryY=0.5;entryDx=0;entryDy=0;" parent="1" source="x2t9jPQQrwYsNlc4PM24-36" target="x2t9jPQQrwYsNlc4PM24-40" edge="1">
          <mxGeometry relative="1" as="geometry" />
        </mxCell>
        <mxCell id="x2t9jPQQrwYsNlc4PM24-70" style="edgeStyle=orthogonalEdgeStyle;rounded=0;orthogonalLoop=1;jettySize=auto;html=1;exitX=1;exitY=0.5;exitDx=0;exitDy=0;entryX=0;entryY=1;entryDx=0;entryDy=0;fillColor=#f8cecc;strokeColor=#b85450;" parent="1" source="x2t9jPQQrwYsNlc4PM24-36" target="x2t9jPQQrwYsNlc4PM24-60" edge="1">
          <mxGeometry relative="1" as="geometry">
            <mxPoint x="1020" y="430" as="targetPoint" />
          </mxGeometry>
        </mxCell>
        <mxCell id="x2t9jPQQrwYsNlc4PM24-36" value="data history pembayaran" style="shape=partialRectangle;whiteSpace=wrap;html=1;left=0;right=0;fillColor=none;" parent="1" vertex="1">
          <mxGeometry x="670" y="1000" width="120" height="60" as="geometry" />
        </mxCell>
        <mxCell id="x2t9jPQQrwYsNlc4PM24-39" value="data pembayaran spp" style="text;html=1;align=center;verticalAlign=middle;resizable=0;points=[];autosize=1;strokeColor=none;fillColor=none;" parent="1" vertex="1">
          <mxGeometry x="670" y="920" width="140" height="30" as="geometry" />
        </mxCell>
        <mxCell id="x2t9jPQQrwYsNlc4PM24-43" style="edgeStyle=orthogonalEdgeStyle;rounded=0;orthogonalLoop=1;jettySize=auto;html=1;exitX=0;exitY=0.5;exitDx=0;exitDy=0;entryX=1;entryY=0.5;entryDx=0;entryDy=0;" parent="1" source="x2t9jPQQrwYsNlc4PM24-40" target="x2t9jPQQrwYsNlc4PM24-11" edge="1">
          <mxGeometry relative="1" as="geometry">
            <Array as="points">
              <mxPoint x="320" y="1030" />
              <mxPoint x="320" y="1100" />
              <mxPoint x="820" y="1100" />
              <mxPoint x="820" y="790" />
              <mxPoint x="170" y="790" />
              <mxPoint x="170" y="610" />
            </Array>
          </mxGeometry>
        </mxCell>
        <mxCell id="x2t9jPQQrwYsNlc4PM24-44" style="edgeStyle=orthogonalEdgeStyle;rounded=0;orthogonalLoop=1;jettySize=auto;html=1;exitX=0;exitY=0.5;exitDx=0;exitDy=0;entryX=0;entryY=0.5;entryDx=0;entryDy=0;" parent="1" source="x2t9jPQQrwYsNlc4PM24-40" target="6_kXN_2a8IdiCBrukuXB-1" edge="1">
          <mxGeometry relative="1" as="geometry" />
        </mxCell>
        <mxCell id="x2t9jPQQrwYsNlc4PM24-57" style="edgeStyle=orthogonalEdgeStyle;rounded=0;orthogonalLoop=1;jettySize=auto;html=1;exitX=0;exitY=0.5;exitDx=0;exitDy=0;entryX=0;entryY=0.5;entryDx=0;entryDy=0;" parent="1" source="x2t9jPQQrwYsNlc4PM24-40" target="x2t9jPQQrwYsNlc4PM24-46" edge="1">
          <mxGeometry relative="1" as="geometry">
            <mxPoint x="1170" y="350" as="targetPoint" />
            <Array as="points">
              <mxPoint x="270" y="1030" />
              <mxPoint x="270" y="1150" />
              <mxPoint x="1310" y="1150" />
              <mxPoint x="1310" y="250" />
              <mxPoint x="1340" y="250" />
              <mxPoint x="1340" y="220" />
            </Array>
          </mxGeometry>
        </mxCell>
        <mxCell id="x2t9jPQQrwYsNlc4PM24-40" value="&lt;div&gt;8.0&lt;/div&gt;&lt;div&gt;menerima&lt;/div&gt;data history pembayaran" style="ellipse;whiteSpace=wrap;html=1;aspect=fixed;" parent="1" vertex="1">
          <mxGeometry x="345" y="990" width="80" height="80" as="geometry" />
        </mxCell>
        <mxCell id="x2t9jPQQrwYsNlc4PM24-45" value="data history pembayaran" style="text;html=1;align=center;verticalAlign=middle;resizable=0;points=[];autosize=1;strokeColor=none;fillColor=none;" parent="1" vertex="1">
          <mxGeometry x="450" y="1000" width="160" height="30" as="geometry" />
        </mxCell>
        <mxCell id="x2t9jPQQrwYsNlc4PM24-46" value="petugas" style="rounded=0;whiteSpace=wrap;html=1;" parent="1" vertex="1">
          <mxGeometry x="1360" y="190" width="120" height="60" as="geometry" />
        </mxCell>
        <mxCell id="x2t9jPQQrwYsNlc4PM24-54" style="edgeStyle=orthogonalEdgeStyle;rounded=0;orthogonalLoop=1;jettySize=auto;html=1;exitX=1;exitY=0.5;exitDx=0;exitDy=0;entryX=0;entryY=0.5;entryDx=0;entryDy=0;" parent="1" source="x2t9jPQQrwYsNlc4PM24-49" target="x2t9jPQQrwYsNlc4PM24-53" edge="1">
          <mxGeometry relative="1" as="geometry" />
        </mxCell>
        <mxCell id="x2t9jPQQrwYsNlc4PM24-49" value="data login petugas" style="shape=partialRectangle;whiteSpace=wrap;html=1;left=0;right=0;fillColor=none;" parent="1" vertex="1">
          <mxGeometry x="930" y="190" width="120" height="60" as="geometry" />
        </mxCell>
        <mxCell id="x2t9jPQQrwYsNlc4PM24-51" value="data petugas" style="text;html=1;align=center;verticalAlign=middle;resizable=0;points=[];autosize=1;strokeColor=none;fillColor=none;" parent="1" vertex="1">
          <mxGeometry x="800" y="190" width="90" height="30" as="geometry" />
        </mxCell>
        <mxCell id="x2t9jPQQrwYsNlc4PM24-55" style="edgeStyle=orthogonalEdgeStyle;rounded=0;orthogonalLoop=1;jettySize=auto;html=1;exitX=1;exitY=0.5;exitDx=0;exitDy=0;entryX=0;entryY=0.5;entryDx=0;entryDy=0;" parent="1" edge="1">
          <mxGeometry relative="1" as="geometry">
            <mxPoint x="1250" y="230" as="sourcePoint" />
            <mxPoint x="1360" y="230" as="targetPoint" />
          </mxGeometry>
        </mxCell>
        <mxCell id="x2t9jPQQrwYsNlc4PM24-53" value="&lt;div&gt;9.0&lt;/div&gt;menerima data login petugas" style="ellipse;whiteSpace=wrap;html=1;aspect=fixed;" parent="1" vertex="1">
          <mxGeometry x="1170" y="180" width="80" height="80" as="geometry" />
        </mxCell>
        <mxCell id="x2t9jPQQrwYsNlc4PM24-56" value="data login petugas" style="text;html=1;align=center;verticalAlign=middle;resizable=0;points=[];autosize=1;strokeColor=none;fillColor=none;" parent="1" vertex="1">
          <mxGeometry x="1050" y="190" width="120" height="30" as="geometry" />
        </mxCell>
        <mxCell id="x2t9jPQQrwYsNlc4PM24-72" style="edgeStyle=orthogonalEdgeStyle;rounded=0;orthogonalLoop=1;jettySize=auto;html=1;exitX=1;exitY=0.5;exitDx=0;exitDy=0;entryX=0;entryY=0.25;entryDx=0;entryDy=0;fillColor=#dae8fc;strokeColor=#6c8ebf;" parent="1" source="x2t9jPQQrwYsNlc4PM24-73" target="6_kXN_2a8IdiCBrukuXB-1" edge="1">
          <mxGeometry relative="1" as="geometry">
            <Array as="points">
              <mxPoint x="10" y="85" />
            </Array>
          </mxGeometry>
        </mxCell>
        <mxCell id="x2t9jPQQrwYsNlc4PM24-75" style="edgeStyle=orthogonalEdgeStyle;rounded=0;orthogonalLoop=1;jettySize=auto;html=1;exitX=1;exitY=0.5;exitDx=0;exitDy=0;entryX=1;entryY=0.5;entryDx=0;entryDy=0;fillColor=#dae8fc;strokeColor=#6c8ebf;" parent="1" source="x2t9jPQQrwYsNlc4PM24-60" target="x2t9jPQQrwYsNlc4PM24-73" edge="1">
          <mxGeometry relative="1" as="geometry">
            <Array as="points">
              <mxPoint x="1270" y="370" />
              <mxPoint x="1270" y="40" />
            </Array>
          </mxGeometry>
        </mxCell>
        <mxCell id="x2t9jPQQrwYsNlc4PM24-60" value="data laporan&amp;nbsp;" style="shape=partialRectangle;whiteSpace=wrap;html=1;left=0;right=0;fillColor=none;" parent="1" vertex="1">
          <mxGeometry x="1030" y="340" width="120" height="60" as="geometry" />
        </mxCell>
        <mxCell id="x2t9jPQQrwYsNlc4PM24-64" value="data siswa" style="text;html=1;align=center;verticalAlign=middle;resizable=0;points=[];autosize=1;strokeColor=none;fillColor=none;" parent="1" vertex="1">
          <mxGeometry x="910" y="310" width="80" height="30" as="geometry" />
        </mxCell>
        <mxCell id="x2t9jPQQrwYsNlc4PM24-65" value="data petugas" style="text;html=1;align=center;verticalAlign=middle;resizable=0;points=[];autosize=1;strokeColor=none;fillColor=none;" parent="1" vertex="1">
          <mxGeometry x="900" y="368" width="90" height="30" as="geometry" />
        </mxCell>
        <mxCell id="x2t9jPQQrwYsNlc4PM24-67" value="data spp" style="text;html=1;align=center;verticalAlign=middle;resizable=0;points=[];autosize=1;strokeColor=none;fillColor=none;" parent="1" vertex="1">
          <mxGeometry x="895" y="418" width="70" height="30" as="geometry" />
        </mxCell>
        <mxCell id="x2t9jPQQrwYsNlc4PM24-69" value="data kelas" style="text;html=1;align=center;verticalAlign=middle;resizable=0;points=[];autosize=1;strokeColor=none;fillColor=none;" parent="1" vertex="1">
          <mxGeometry x="885" y="460" width="80" height="30" as="geometry" />
        </mxCell>
        <mxCell id="x2t9jPQQrwYsNlc4PM24-71" value="data history pembayaran" style="text;html=1;align=center;verticalAlign=middle;resizable=0;points=[];autosize=1;strokeColor=none;fillColor=none;" parent="1" vertex="1">
          <mxGeometry x="1030" y="470" width="160" height="30" as="geometry" />
        </mxCell>
        <mxCell id="x2t9jPQQrwYsNlc4PM24-73" value="&lt;div&gt;10.0&lt;/div&gt;menerima data laporan" style="ellipse;whiteSpace=wrap;html=1;aspect=fixed;" parent="1" vertex="1">
          <mxGeometry x="940" width="80" height="80" as="geometry" />
        </mxCell>
        <mxCell id="x2t9jPQQrwYsNlc4PM24-76" value="data laporan" style="text;html=1;align=center;verticalAlign=middle;resizable=0;points=[];autosize=1;strokeColor=none;fillColor=none;" parent="1" vertex="1">
          <mxGeometry x="1075" y="38" width="90" height="30" as="geometry" />
        </mxCell>
      </root>
    </mxGraphModel>
  </diagram>
</mxfile>
